# Blender v2.79 (sub 0) OBJ File: ''
# www.blender.org
mtllib VR.mtl
o Text
v 0.282397 0.200000 -0.180495
v 0.313509 0.200000 -0.176046
v 0.342219 0.200000 -0.168750
v 0.368407 0.200000 -0.158704
v 0.391957 0.200000 -0.146005
v 0.412750 0.200000 -0.130750
v 0.430668 0.200000 -0.113037
v 0.445593 0.200000 -0.092963
v 0.457406 0.200000 -0.070625
v 0.465991 0.200000 -0.046120
v 0.471228 0.200000 -0.019546
v 0.473000 0.200000 0.009000
v 0.472151 0.200000 0.028328
v 0.469625 0.200000 0.046787
v 0.465453 0.200000 0.064344
v 0.459667 0.200000 0.080963
v 0.452297 0.200000 0.096610
v 0.443375 0.200000 0.111250
v 0.432932 0.200000 0.124848
v 0.421000 0.200000 0.137370
v 0.407609 0.200000 0.148781
v 0.392792 0.200000 0.159046
v 0.376578 0.200000 0.168131
v 0.359000 0.200000 0.176000
v 0.374022 0.200000 0.186708
v 0.388176 0.200000 0.198333
v 0.401594 0.200000 0.210875
v 0.414407 0.200000 0.224333
v 0.426749 0.200000 0.238708
v 0.438750 0.200000 0.254000
v 0.450543 0.200000 0.270208
v 0.462259 0.200000 0.287333
v 0.474031 0.200000 0.305375
v 0.485991 0.200000 0.324333
v 0.498270 0.200000 0.344208
v 0.511000 0.200000 0.365000
v 0.518024 0.200000 0.376288
v 0.524695 0.200000 0.386806
v 0.531156 0.200000 0.396781
v 0.537556 0.200000 0.406444
v 0.544038 0.200000 0.416024
v 0.550750 0.200000 0.425750
v 0.557837 0.200000 0.435851
v 0.565445 0.200000 0.446556
v 0.573719 0.200000 0.458094
v 0.582806 0.200000 0.470694
v 0.592851 0.200000 0.484587
v 0.604000 0.200000 0.500000
v 0.487000 0.200000 0.500000
v 0.397000 0.200000 0.360000
v 0.375487 0.200000 0.327521
v 0.355815 0.200000 0.299833
v 0.337781 0.200000 0.276563
v 0.321185 0.200000 0.257333
v 0.305825 0.200000 0.241771
v 0.291500 0.200000 0.229500
v 0.278008 0.200000 0.220146
v 0.265148 0.200000 0.213333
v 0.252719 0.200000 0.208687
v 0.240519 0.200000 0.205833
v 0.228346 0.200000 0.204396
v 0.216000 0.200000 0.204000
v 0.175000 0.200000 0.204000
v 0.175000 0.200000 0.500000
v 0.077000 0.200000 0.500000
v 0.077000 0.200000 -0.182000
v 0.249000 0.200000 -0.182000
v 0.238000 0.200000 0.116000
v 0.262713 0.200000 0.114905
v 0.284454 0.200000 0.111736
v 0.303375 0.200000 0.106672
v 0.319630 0.200000 0.099889
v 0.333370 0.200000 0.091564
v 0.344750 0.200000 0.081875
v 0.353921 0.200000 0.070998
v 0.361037 0.200000 0.059111
v 0.366250 0.200000 0.046391
v 0.369713 0.200000 0.033014
v 0.371579 0.200000 0.019158
v 0.372000 0.200000 0.005000
v 0.370968 0.200000 -0.010471
v 0.368324 0.200000 -0.024852
v 0.364000 0.200000 -0.038094
v 0.357926 0.200000 -0.050148
v 0.350032 0.200000 -0.060966
v 0.340250 0.200000 -0.070500
v 0.328509 0.200000 -0.078700
v 0.314741 0.200000 -0.085519
v 0.298875 0.200000 -0.090906
v 0.280843 0.200000 -0.094815
v 0.260574 0.200000 -0.097196
v 0.238000 0.200000 -0.098000
v 0.175000 0.200000 -0.098000
v 0.175000 0.200000 0.116000
v -0.309000 0.200000 0.506000
v -0.604000 0.200000 -0.182000
v -0.506000 0.200000 -0.182000
v -0.301000 0.200000 0.297000
v -0.097000 0.200000 -0.182000
v 0.000000 0.200000 -0.182000
v -0.289000 0.200000 0.506000
v 0.282397 -0.200000 -0.180495
v 0.313509 -0.200000 -0.176046
v 0.342219 -0.200000 -0.168750
v 0.368407 -0.200000 -0.158704
v 0.391957 -0.200000 -0.146005
v 0.412750 -0.200000 -0.130750
v 0.430668 -0.200000 -0.113037
v 0.445593 -0.200000 -0.092963
v 0.457406 -0.200000 -0.070625
v 0.465991 -0.200000 -0.046120
v 0.471228 -0.200000 -0.019546
v 0.473000 -0.200000 0.009000
v 0.472151 -0.200000 0.028328
v 0.469625 -0.200000 0.046787
v 0.465453 -0.200000 0.064344
v 0.459667 -0.200000 0.080963
v 0.452297 -0.200000 0.096610
v 0.443375 -0.200000 0.111250
v 0.432932 -0.200000 0.124848
v 0.421000 -0.200000 0.137370
v 0.407609 -0.200000 0.148781
v 0.392792 -0.200000 0.159046
v 0.376578 -0.200000 0.168131
v 0.359000 -0.200000 0.176000
v 0.374022 -0.200000 0.186708
v 0.388176 -0.200000 0.198333
v 0.401594 -0.200000 0.210875
v 0.414407 -0.200000 0.224333
v 0.426749 -0.200000 0.238708
v 0.438750 -0.200000 0.254000
v 0.450543 -0.200000 0.270208
v 0.462259 -0.200000 0.287333
v 0.474031 -0.200000 0.305375
v 0.485991 -0.200000 0.324333
v 0.498270 -0.200000 0.344208
v 0.511000 -0.200000 0.365000
v 0.518024 -0.200000 0.376288
v 0.524695 -0.200000 0.386806
v 0.531156 -0.200000 0.396781
v 0.537556 -0.200000 0.406444
v 0.544038 -0.200000 0.416024
v 0.550750 -0.200000 0.425750
v 0.557837 -0.200000 0.435851
v 0.565445 -0.200000 0.446556
v 0.573719 -0.200000 0.458094
v 0.582806 -0.200000 0.470694
v 0.592851 -0.200000 0.484587
v 0.604000 -0.200000 0.500000
v 0.487000 -0.200000 0.500000
v 0.397000 -0.200000 0.360000
v 0.375487 -0.200000 0.327521
v 0.355815 -0.200000 0.299833
v 0.337781 -0.200000 0.276563
v 0.321185 -0.200000 0.257333
v 0.305825 -0.200000 0.241771
v 0.291500 -0.200000 0.229500
v 0.278008 -0.200000 0.220146
v 0.265148 -0.200000 0.213333
v 0.252719 -0.200000 0.208687
v 0.240519 -0.200000 0.205833
v 0.228346 -0.200000 0.204396
v 0.216000 -0.200000 0.204000
v 0.175000 -0.200000 0.204000
v 0.175000 -0.200000 0.500000
v 0.077000 -0.200000 0.500000
v 0.077000 -0.200000 -0.182000
v 0.249000 -0.200000 -0.182000
v 0.238000 -0.200000 0.116000
v 0.262713 -0.200000 0.114905
v 0.284454 -0.200000 0.111736
v 0.303375 -0.200000 0.106672
v 0.319630 -0.200000 0.099889
v 0.333370 -0.200000 0.091564
v 0.344750 -0.200000 0.081875
v 0.353921 -0.200000 0.070998
v 0.361037 -0.200000 0.059111
v 0.366250 -0.200000 0.046391
v 0.369713 -0.200000 0.033014
v 0.371579 -0.200000 0.019158
v 0.372000 -0.200000 0.005000
v 0.370968 -0.200000 -0.010471
v 0.368324 -0.200000 -0.024852
v 0.364000 -0.200000 -0.038094
v 0.357926 -0.200000 -0.050148
v 0.350032 -0.200000 -0.060966
v 0.340250 -0.200000 -0.070500
v 0.328509 -0.200000 -0.078700
v 0.314741 -0.200000 -0.085519
v 0.298875 -0.200000 -0.090906
v 0.280843 -0.200000 -0.094815
v 0.260574 -0.200000 -0.097196
v 0.238000 -0.200000 -0.098000
v 0.175000 -0.200000 -0.098000
v 0.175000 -0.200000 0.116000
v -0.309000 -0.200000 0.506000
v -0.604000 -0.200000 -0.182000
v -0.506000 -0.200000 -0.182000
v -0.301000 -0.200000 0.297000
v -0.097000 -0.200000 -0.182000
v 0.000000 -0.200000 -0.182000
v -0.289000 -0.200000 0.506000
v -0.309000 -0.200000 0.506000
v -0.309000 0.200000 0.506000
v -0.604000 -0.200000 -0.182000
v -0.604000 0.200000 -0.182000
v -0.506000 -0.200000 -0.182000
v -0.506000 0.200000 -0.182000
v -0.301000 -0.200000 0.297000
v -0.301000 0.200000 0.297000
v -0.097000 -0.200000 -0.182000
v -0.097000 0.200000 -0.182000
v 0.000000 -0.200000 -0.182000
v 0.000000 0.200000 -0.182000
v -0.289000 -0.200000 0.506000
v -0.289000 0.200000 0.506000
v 0.282397 -0.200000 -0.180495
v 0.282397 0.200000 -0.180495
v 0.313509 -0.200000 -0.176046
v 0.313509 0.200000 -0.176046
v 0.342219 -0.200000 -0.168750
v 0.342219 0.200000 -0.168750
v 0.368407 -0.200000 -0.158704
v 0.368407 0.200000 -0.158704
v 0.391957 -0.200000 -0.146005
v 0.391957 0.200000 -0.146005
v 0.412750 -0.200000 -0.130750
v 0.412750 0.200000 -0.130750
v 0.430668 -0.200000 -0.113037
v 0.430668 0.200000 -0.113037
v 0.445593 -0.200000 -0.092963
v 0.445593 0.200000 -0.092963
v 0.457406 -0.200000 -0.070625
v 0.457406 0.200000 -0.070625
v 0.465991 -0.200000 -0.046120
v 0.465991 0.200000 -0.046120
v 0.471228 -0.200000 -0.019546
v 0.471228 0.200000 -0.019546
v 0.473000 -0.200000 0.009000
v 0.473000 0.200000 0.009000
v 0.472151 -0.200000 0.028328
v 0.472151 0.200000 0.028328
v 0.469625 -0.200000 0.046787
v 0.469625 0.200000 0.046787
v 0.465453 -0.200000 0.064344
v 0.465453 0.200000 0.064344
v 0.459667 -0.200000 0.080963
v 0.459667 0.200000 0.080963
v 0.452297 -0.200000 0.096610
v 0.452297 0.200000 0.096610
v 0.443375 -0.200000 0.111250
v 0.443375 0.200000 0.111250
v 0.432932 -0.200000 0.124848
v 0.432932 0.200000 0.124848
v 0.421000 -0.200000 0.137370
v 0.421000 0.200000 0.137370
v 0.407609 -0.200000 0.148781
v 0.407609 0.200000 0.148781
v 0.392792 -0.200000 0.159046
v 0.392792 0.200000 0.159046
v 0.376578 -0.200000 0.168131
v 0.376578 0.200000 0.168131
v 0.359000 -0.200000 0.176000
v 0.359000 0.200000 0.176000
v 0.374022 -0.200000 0.186708
v 0.374022 0.200000 0.186708
v 0.388176 -0.200000 0.198333
v 0.388176 0.200000 0.198333
v 0.401594 -0.200000 0.210875
v 0.401594 0.200000 0.210875
v 0.414407 -0.200000 0.224333
v 0.414407 0.200000 0.224333
v 0.426749 -0.200000 0.238708
v 0.426749 0.200000 0.238708
v 0.438750 -0.200000 0.254000
v 0.438750 0.200000 0.254000
v 0.450543 -0.200000 0.270208
v 0.450543 0.200000 0.270208
v 0.462259 -0.200000 0.287333
v 0.462259 0.200000 0.287333
v 0.474031 -0.200000 0.305375
v 0.474031 0.200000 0.305375
v 0.485991 -0.200000 0.324333
v 0.485991 0.200000 0.324333
v 0.498270 -0.200000 0.344208
v 0.498270 0.200000 0.344208
v 0.511000 -0.200000 0.365000
v 0.511000 0.200000 0.365000
v 0.518024 -0.200000 0.376288
v 0.518024 0.200000 0.376288
v 0.524695 -0.200000 0.386806
v 0.524695 0.200000 0.386806
v 0.531156 -0.200000 0.396781
v 0.531156 0.200000 0.396781
v 0.537556 -0.200000 0.406444
v 0.537556 0.200000 0.406444
v 0.544038 -0.200000 0.416024
v 0.544038 0.200000 0.416024
v 0.550750 -0.200000 0.425750
v 0.550750 0.200000 0.425750
v 0.557837 -0.200000 0.435851
v 0.557837 0.200000 0.435851
v 0.565445 -0.200000 0.446556
v 0.565445 0.200000 0.446556
v 0.573719 -0.200000 0.458094
v 0.573719 0.200000 0.458094
v 0.582806 -0.200000 0.470694
v 0.582806 0.200000 0.470694
v 0.592851 -0.200000 0.484587
v 0.592851 0.200000 0.484587
v 0.604000 -0.200000 0.500000
v 0.604000 0.200000 0.500000
v 0.487000 -0.200000 0.500000
v 0.487000 0.200000 0.500000
v 0.397000 -0.200000 0.360000
v 0.397000 0.200000 0.360000
v 0.375487 -0.200000 0.327521
v 0.375487 0.200000 0.327521
v 0.355815 -0.200000 0.299833
v 0.355815 0.200000 0.299833
v 0.337781 -0.200000 0.276563
v 0.337781 0.200000 0.276563
v 0.321185 -0.200000 0.257333
v 0.321185 0.200000 0.257333
v 0.305825 -0.200000 0.241771
v 0.305825 0.200000 0.241771
v 0.291500 -0.200000 0.229500
v 0.291500 0.200000 0.229500
v 0.278008 -0.200000 0.220146
v 0.278008 0.200000 0.220146
v 0.265148 -0.200000 0.213333
v 0.265148 0.200000 0.213333
v 0.252719 -0.200000 0.208687
v 0.252719 0.200000 0.208687
v 0.240519 -0.200000 0.205833
v 0.240519 0.200000 0.205833
v 0.228346 -0.200000 0.204396
v 0.228346 0.200000 0.204396
v 0.216000 -0.200000 0.204000
v 0.216000 0.200000 0.204000
v 0.175000 -0.200000 0.204000
v 0.175000 0.200000 0.204000
v 0.175000 -0.200000 0.500000
v 0.175000 0.200000 0.500000
v 0.077000 -0.200000 0.500000
v 0.077000 0.200000 0.500000
v 0.077000 -0.200000 -0.182000
v 0.077000 0.200000 -0.182000
v 0.249000 -0.200000 -0.182000
v 0.249000 0.200000 -0.182000
v 0.238000 -0.200000 0.116000
v 0.238000 0.200000 0.116000
v 0.262713 -0.200000 0.114905
v 0.262713 0.200000 0.114905
v 0.284454 -0.200000 0.111736
v 0.284454 0.200000 0.111736
v 0.303375 -0.200000 0.106672
v 0.303375 0.200000 0.106672
v 0.319630 -0.200000 0.099889
v 0.319630 0.200000 0.099889
v 0.333370 -0.200000 0.091564
v 0.333370 0.200000 0.091564
v 0.344750 -0.200000 0.081875
v 0.344750 0.200000 0.081875
v 0.353921 -0.200000 0.070998
v 0.353921 0.200000 0.070998
v 0.361037 -0.200000 0.059111
v 0.361037 0.200000 0.059111
v 0.366250 -0.200000 0.046391
v 0.366250 0.200000 0.046391
v 0.369713 -0.200000 0.033014
v 0.369713 0.200000 0.033014
v 0.371579 -0.200000 0.019158
v 0.371579 0.200000 0.019158
v 0.372000 -0.200000 0.005000
v 0.372000 0.200000 0.005000
v 0.370968 -0.200000 -0.010471
v 0.370968 0.200000 -0.010471
v 0.368324 -0.200000 -0.024852
v 0.368324 0.200000 -0.024852
v 0.364000 -0.200000 -0.038094
v 0.364000 0.200000 -0.038094
v 0.357926 -0.200000 -0.050148
v 0.357926 0.200000 -0.050148
v 0.350032 -0.200000 -0.060966
v 0.350032 0.200000 -0.060966
v 0.340250 -0.200000 -0.070500
v 0.340250 0.200000 -0.070500
v 0.328509 -0.200000 -0.078700
v 0.328509 0.200000 -0.078700
v 0.314741 -0.200000 -0.085519
v 0.314741 0.200000 -0.085519
v 0.298875 -0.200000 -0.090906
v 0.298875 0.200000 -0.090906
v 0.280843 -0.200000 -0.094815
v 0.280843 0.200000 -0.094815
v 0.260574 -0.200000 -0.097196
v 0.260574 0.200000 -0.097196
v 0.238000 -0.200000 -0.098000
v 0.238000 0.200000 -0.098000
v 0.175000 -0.200000 -0.098000
v 0.175000 0.200000 -0.098000
v 0.175000 -0.200000 0.116000
v 0.175000 0.200000 0.116000
vn 0.0000 1.0000 0.0000
vn 0.0000 -1.0000 0.0000
vn -0.5504 0.0000 0.8349
vn -0.8349 0.0000 -0.5504
vn 0.5507 0.0000 -0.8347
vn -0.0009 0.0000 -1.0000
vn -0.5514 0.0000 -0.8342
vn 0.8328 0.0000 -0.5535
vn 0.5535 0.0000 0.8328
vn 0.0934 0.0000 -0.9956
vn 0.1942 0.0000 -0.9810
vn 0.3027 0.0000 -0.9531
vn 0.4172 0.0000 -0.9088
vn 0.5343 0.0000 -0.8452
vn 0.6490 0.0000 -0.7608
vn 0.7549 0.0000 -0.6558
vn 0.8457 0.0000 -0.5336
vn 0.9164 0.0000 -0.4002
vn 0.9649 0.0000 -0.2626
vn 0.9918 0.0000 -0.1279
vn 0.9999 0.0000 -0.0090
vn 0.9959 0.0000 0.0898
vn 0.9830 0.0000 0.1836
vn 0.9599 0.0000 0.2803
vn 0.9258 0.0000 0.3780
vn 0.8806 0.0000 0.4739
vn 0.8247 0.0000 0.5655
vn 0.7596 0.0000 0.6504
vn 0.6872 0.0000 0.7265
vn 0.6098 0.0000 0.7925
vn 0.5297 0.0000 0.8481
vn 0.4491 0.0000 0.8934
vn 0.9951 0.0000 0.0990
vn 0.6079 0.0000 -0.7940
vn 0.6591 0.0000 -0.7520
vn 0.7038 0.0000 -0.7103
vn 0.7417 0.0000 -0.6707
vn 0.7729 0.0000 -0.6345
vn 0.7978 0.0000 -0.6030
vn 0.8170 0.0000 -0.5766
vn 0.8314 0.0000 -0.5556
vn 0.8416 0.0000 -0.5400
vn 0.8483 0.0000 -0.5296
vn 0.8518 0.0000 -0.5239
vn 0.8509 0.0000 -0.5253
vn 0.8468 0.0000 -0.5319
vn 0.8419 0.0000 -0.5396
vn 0.8365 0.0000 -0.5479
vn 0.8310 0.0000 -0.5563
vn 0.8256 0.0000 -0.5642
vn 0.8208 0.0000 -0.5712
vn 0.8169 0.0000 -0.5768
vn 0.8139 0.0000 -0.5810
vn 0.8119 0.0000 -0.5838
vn 0.8107 0.0000 -0.5854
vn 0.8103 0.0000 -0.5860
vn 0.8905 0.0000 0.4549
vn -0.4792 0.0000 0.8777
vn -0.8375 0.0000 0.5465
vn -0.8245 0.0000 0.5658
vn -0.8030 0.0000 0.5960
vn -0.7740 0.0000 0.6332
vn -0.7348 0.0000 0.6783
vn -0.6817 0.0000 0.7316
vn -0.6110 0.0000 0.7917
vn -0.5199 0.0000 0.8542
vn -0.4100 0.0000 0.9121
vn -0.2895 0.0000 0.9572
vn -0.1728 0.0000 0.9850
vn -0.0747 0.0000 0.9972
vn -0.0160 0.0000 0.9998
vn 0.7071 0.0000 0.7071
vn -0.7071 0.0000 0.7071
vn -0.7071 0.0000 -0.7071
vn 0.0225 0.0000 -0.9997
vn -0.0221 0.0000 -0.9997
vn -0.0944 0.0000 -0.9955
vn -0.2017 0.0000 -0.9794
vn -0.3225 0.0000 -0.9465
vn -0.4529 0.0000 -0.8915
vn -0.5851 0.0000 -0.8109
vn -0.7088 0.0000 -0.7054
vn -0.8139 0.0000 -0.5810
vn -0.8942 0.0000 -0.4476
vn -0.9489 0.0000 -0.3156
vn -0.9813 0.0000 -0.1924
vn -0.9966 0.0000 -0.0817
vn -0.9998 0.0000 0.0184
vn -0.9923 0.0000 0.1239
vn -0.9692 0.0000 0.2461
vn -0.9244 0.0000 0.3813
vn -0.8533 0.0000 0.5214
vn -0.7555 0.0000 0.6551
vn -0.6374 0.0000 0.7705
vn -0.5096 0.0000 0.8604
vn -0.3835 0.0000 0.9235
vn -0.2671 0.0000 0.9637
vn -0.1644 0.0000 0.9864
vn -0.0762 0.0000 0.9971
vn -0.0178 0.0000 0.9998
vn 0.7071 0.0000 -0.7071
usemtl None
s off
f 65//1 93//1 66//1
f 93//1 67//1 66//1
f 93//1 1//1 67//1
f 93//1 2//1 1//1
f 93//1 3//1 2//1
f 93//1 4//1 3//1
f 93//1 5//1 4//1
f 93//1 6//1 5//1
f 93//1 7//1 6//1
f 93//1 92//1 7//1
f 92//1 8//1 7//1
f 65//1 94//1 93//1
f 91//1 8//1 92//1
f 90//1 8//1 91//1
f 89//1 8//1 90//1
f 89//1 9//1 8//1
f 88//1 9//1 89//1
f 87//1 9//1 88//1
f 86//1 9//1 87//1
f 86//1 10//1 9//1
f 85//1 10//1 86//1
f 84//1 10//1 85//1
f 83//1 10//1 84//1
f 83//1 11//1 10//1
f 82//1 11//1 83//1
f 81//1 11//1 82//1
f 81//1 12//1 11//1
f 80//1 12//1 81//1
f 79//1 12//1 80//1
f 79//1 13//1 12//1
f 78//1 13//1 79//1
f 78//1 14//1 13//1
f 77//1 14//1 78//1
f 76//1 14//1 77//1
f 76//1 15//1 14//1
f 75//1 15//1 76//1
f 75//1 16//1 15//1
f 74//1 16//1 75//1
f 74//1 17//1 16//1
f 73//1 17//1 74//1
f 72//1 17//1 73//1
f 72//1 18//1 17//1
f 71//1 18//1 72//1
f 70//1 18//1 71//1
f 70//1 19//1 18//1
f 69//1 19//1 70//1
f 68//1 19//1 69//1
f 65//1 63//1 94//1
f 63//1 68//1 94//1
f 63//1 19//1 68//1
f 63//1 20//1 19//1
f 63//1 21//1 20//1
f 63//1 22//1 21//1
f 63//1 23//1 22//1
f 63//1 24//1 23//1
f 63//1 25//1 24//1
f 63//1 26//1 25//1
f 63//1 62//1 26//1
f 62//1 61//1 26//1
f 61//1 27//1 26//1
f 65//1 64//1 63//1
f 60//1 27//1 61//1
f 59//1 27//1 60//1
f 58//1 27//1 59//1
f 58//1 28//1 27//1
f 57//1 28//1 58//1
f 56//1 28//1 57//1
f 56//1 29//1 28//1
f 55//1 29//1 56//1
f 55//1 30//1 29//1
f 54//1 30//1 55//1
f 54//1 31//1 30//1
f 53//1 31//1 54//1
f 53//1 32//1 31//1
f 52//1 32//1 53//1
f 52//1 33//1 32//1
f 51//1 33//1 52//1
f 51//1 34//1 33//1
f 51//1 35//1 34//1
f 50//1 35//1 51//1
f 50//1 36//1 35//1
f 49//1 36//1 50//1
f 49//1 37//1 36//1
f 49//1 38//1 37//1
f 49//1 39//1 38//1
f 49//1 40//1 39//1
f 49//1 41//1 40//1
f 49//1 42//1 41//1
f 49//1 43//1 42//1
f 49//1 44//1 43//1
f 49//1 45//1 44//1
f 49//1 46//1 45//1
f 49//1 47//1 46//1
f 49//1 48//1 47//1
f 95//1 97//1 96//1
f 95//1 98//1 97//1
f 98//1 100//1 99//1
f 98//1 101//1 100//1
f 95//1 101//1 98//1
f 194//2 166//2 167//2
f 168//2 194//2 167//2
f 102//2 194//2 168//2
f 103//2 194//2 102//2
f 104//2 194//2 103//2
f 105//2 194//2 104//2
f 106//2 194//2 105//2
f 107//2 194//2 106//2
f 108//2 194//2 107//2
f 193//2 194//2 108//2
f 109//2 193//2 108//2
f 195//2 166//2 194//2
f 109//2 192//2 193//2
f 109//2 191//2 192//2
f 109//2 190//2 191//2
f 110//2 190//2 109//2
f 110//2 189//2 190//2
f 110//2 188//2 189//2
f 110//2 187//2 188//2
f 111//2 187//2 110//2
f 111//2 186//2 187//2
f 111//2 185//2 186//2
f 111//2 184//2 185//2
f 112//2 184//2 111//2
f 112//2 183//2 184//2
f 112//2 182//2 183//2
f 113//2 182//2 112//2
f 113//2 181//2 182//2
f 113//2 180//2 181//2
f 114//2 180//2 113//2
f 114//2 179//2 180//2
f 115//2 179//2 114//2
f 115//2 178//2 179//2
f 115//2 177//2 178//2
f 116//2 177//2 115//2
f 116//2 176//2 177//2
f 117//2 176//2 116//2
f 117//2 175//2 176//2
f 118//2 175//2 117//2
f 118//2 174//2 175//2
f 118//2 173//2 174//2
f 119//2 173//2 118//2
f 119//2 172//2 173//2
f 119//2 171//2 172//2
f 120//2 171//2 119//2
f 120//2 170//2 171//2
f 120//2 169//2 170//2
f 164//2 166//2 195//2
f 169//2 164//2 195//2
f 120//2 164//2 169//2
f 121//2 164//2 120//2
f 122//2 164//2 121//2
f 123//2 164//2 122//2
f 124//2 164//2 123//2
f 125//2 164//2 124//2
f 126//2 164//2 125//2
f 127//2 164//2 126//2
f 163//2 164//2 127//2
f 162//2 163//2 127//2
f 128//2 162//2 127//2
f 165//2 166//2 164//2
f 128//2 161//2 162//2
f 128//2 160//2 161//2
f 128//2 159//2 160//2
f 129//2 159//2 128//2
f 129//2 158//2 159//2
f 129//2 157//2 158//2
f 130//2 157//2 129//2
f 130//2 156//2 157//2
f 131//2 156//2 130//2
f 131//2 155//2 156//2
f 132//2 155//2 131//2
f 132//2 154//2 155//2
f 133//2 154//2 132//2
f 133//2 153//2 154//2
f 134//2 153//2 133//2
f 134//2 152//2 153//2
f 135//2 152//2 134//2
f 136//2 152//2 135//2
f 136//2 151//2 152//2
f 137//2 151//2 136//2
f 137//2 150//2 151//2
f 138//2 150//2 137//2
f 139//2 150//2 138//2
f 140//2 150//2 139//2
f 141//2 150//2 140//2
f 142//2 150//2 141//2
f 143//2 150//2 142//2
f 144//2 150//2 143//2
f 145//2 150//2 144//2
f 146//2 150//2 145//2
f 147//2 150//2 146//2
f 148//2 150//2 147//2
f 149//2 150//2 148//2
f 198//2 196//2 197//2
f 199//2 196//2 198//2
f 201//2 199//2 200//2
f 202//2 199//2 201//2
f 202//2 196//2 199//2
s 1
f 204//3 206//4 205//4 203//3
f 206//4 208//5 207//5 205//4
f 208//5 210//6 209//6 207//5
f 210//6 212//7 211//7 209//6
f 212//7 214//8 213//8 211//7
f 214//8 216//9 215//9 213//8
f 216//9 204//3 203//3 215//9
f 218//10 220//11 219//11 217//10
f 220//11 222//12 221//12 219//11
f 222//12 224//13 223//13 221//12
f 224//13 226//14 225//14 223//13
f 226//14 228//15 227//15 225//14
f 228//15 230//16 229//16 227//15
f 230//16 232//17 231//17 229//16
f 232//17 234//18 233//18 231//17
f 234//18 236//19 235//19 233//18
f 236//19 238//20 237//20 235//19
f 238//20 240//21 239//21 237//20
f 240//21 242//22 241//22 239//21
f 242//22 244//23 243//23 241//22
f 244//23 246//24 245//24 243//23
f 246//24 248//25 247//25 245//24
f 248//25 250//26 249//26 247//25
f 250//26 252//27 251//27 249//26
f 252//27 254//28 253//28 251//27
f 254//28 256//29 255//29 253//28
f 256//29 258//30 257//30 255//29
f 258//30 260//31 259//31 257//30
f 260//31 262//32 261//32 259//31
f 262//32 264//33 263//33 261//32
f 264//33 266//34 265//34 263//33
f 266//34 268//35 267//35 265//34
f 268//35 270//36 269//36 267//35
f 270//36 272//37 271//37 269//36
f 272//37 274//38 273//38 271//37
f 274//38 276//39 275//39 273//38
f 276//39 278//40 277//40 275//39
f 278//40 280//41 279//41 277//40
f 280//41 282//42 281//42 279//41
f 282//42 284//43 283//43 281//42
f 284//43 286//44 285//44 283//43
f 286//44 288//45 287//45 285//44
f 288//45 290//46 289//46 287//45
f 290//46 292//47 291//47 289//46
f 292//47 294//48 293//48 291//47
f 294//48 296//49 295//49 293//48
f 296//49 298//50 297//50 295//49
f 298//50 300//51 299//51 297//50
f 300//51 302//52 301//52 299//51
f 302//52 304//53 303//53 301//52
f 304//53 306//54 305//54 303//53
f 306//54 308//55 307//55 305//54
f 308//55 310//56 309//56 307//55
f 310//56 312//57 311//57 309//56
f 312//57 314//58 313//58 311//57
f 314//58 316//59 315//59 313//58
f 316//59 318//60 317//60 315//59
f 318//60 320//61 319//61 317//60
f 320//61 322//62 321//62 319//61
f 322//62 324//63 323//63 321//62
f 324//63 326//64 325//64 323//63
f 326//64 328//65 327//65 325//64
f 328//65 330//66 329//66 327//65
f 330//66 332//67 331//67 329//66
f 332//67 334//68 333//68 331//67
f 334//68 336//69 335//69 333//68
f 336//69 338//70 337//70 335//69
f 338//70 340//71 339//71 337//70
f 340//71 342//72 341//72 339//71
f 342//72 344//72 343//72 341//72
f 344//72 346//73 345//73 343//72
f 346//73 348//74 347//74 345//73
f 348//74 350//75 349//75 347//74
f 350//75 218//10 217//10 349//75
f 352//76 354//77 353//77 351//76
f 354//77 356//78 355//78 353//77
f 356//78 358//79 357//79 355//78
f 358//79 360//80 359//80 357//79
f 360//80 362//81 361//81 359//80
f 362//81 364//82 363//82 361//81
f 364//82 366//83 365//83 363//82
f 366//83 368//84 367//84 365//83
f 368//84 370//85 369//85 367//84
f 370//85 372//86 371//86 369//85
f 372//86 374//87 373//87 371//86
f 374//87 376//88 375//88 373//87
f 376//88 378//89 377//89 375//88
f 378//89 380//90 379//90 377//89
f 380//90 382//91 381//91 379//90
f 382//91 384//92 383//92 381//91
f 384//92 386//93 385//93 383//92
f 386//93 388//94 387//94 385//93
f 388//94 390//95 389//95 387//94
f 390//95 392//96 391//96 389//95
f 392//96 394//97 393//97 391//96
f 394//97 396//98 395//98 393//97
f 396//98 398//99 397//99 395//98
f 398//99 400//100 399//100 397//99
f 400//100 402//72 401//72 399//100
f 402//72 404//101 403//101 401//72
f 404//101 352//76 351//76 403//101
